<svg width="356" height="101" viewBox="0 0 356 101" fill="none" xmlns="http://www.w3.org/2000/svg">
<path d="M318.118 14.9297H355.997L349.749 29.7687H298.984L293.126 43.4361H343.891L338.034 58.6656H287.269L281.021 73.5046H355.216L348.968 88.3436H286.878L318.118 14.9297Z" fill="black"/>
<path d="M225.953 88.7233H171.283C165.426 88.7233 160.349 87.9423 155.273 86.3803C150.587 84.8183 146.291 82.0848 142.777 78.9608C139.262 75.8368 136.529 71.5413 134.576 67.2458C132.624 62.5599 131.452 57.0929 131.452 51.2354C131.452 45.7684 132.624 40.6919 134.576 36.0059C136.529 31.3199 139.653 27.4149 143.167 23.9004C146.682 20.3859 150.977 18.0429 155.663 16.0904C160.349 14.1379 165.426 13.3569 171.283 13.3569C176.75 13.3569 181.827 14.1379 186.903 16.0904C191.98 18.0429 195.885 20.3859 199.399 23.9004C202.914 27.4149 205.647 31.3199 207.6 36.0059C209.552 40.6919 210.724 45.7684 210.724 51.2354C210.724 53.9689 210.333 56.3119 209.943 59.0454C209.552 61.3884 208.381 63.7314 207.209 66.0744C206 68.5 204.476 70.3699 202.523 71.9318C200.571 73.4938 198.618 75.0558 195.885 76.2273V76.6178H221.267L225.953 88.7233ZM147.853 50.8449C147.853 53.9689 148.634 57.0929 149.806 59.8264C150.977 62.5599 152.539 64.9029 154.492 67.2458C156.444 69.1983 158.787 70.7603 161.521 71.9318C164.254 73.1033 166.988 73.8843 170.112 73.8843C173.236 73.8843 175.969 73.1033 178.703 71.9318C181.436 70.7603 183.779 69.1983 185.732 67.2458C187.684 65.2934 189.637 62.5599 190.808 59.8264C191.98 57.0929 192.761 53.9689 192.761 50.8449C192.761 47.7209 191.98 44.5969 190.808 41.8634C189.637 39.1299 188.075 36.7869 185.732 34.8344C183.779 32.8819 181.436 30.9294 178.703 29.7579C175.969 28.5864 173.236 27.8054 170.112 27.8054C166.988 27.8054 164.254 28.5864 161.521 29.7579C158.787 30.9294 156.444 32.4914 154.492 34.8344C152.539 36.7869 150.977 39.1299 149.806 41.8634C148.634 44.5969 147.853 47.7209 147.853 50.8449Z" fill="black"/>
<path d="M216.586 14.9297H235.33L253.683 63.3516H254.074L272.818 14.9297H290.39L259.931 88.7341H247.045L216.586 14.9297Z" fill="black"/>
<mask id="path-4-outside-1_191_4680" maskUnits="userSpaceOnUse" x="0" y="0" width="108" height="97" fill="black">
<rect fill="white" width="108" height="97"/>
<path fill-rule="evenodd" clip-rule="evenodd" d="M2 19.343L54.544 2L106 19.4212V26.5L59.5144 43.7648L52.4536 55.3362L59.8694 58.2766L106.023 40.9336V51.9057L59.5143 69.2487L47.0074 64.2613L33.5974 86.2375L22.5916 81.9903L2 19.343ZM41.9751 51.1814L28.627 45.8887L32.8873 58.6306L37.0879 60.3057L30.4022 72.7878L14.781 26.0679L54.544 12.9721L85.4314 23.2364L49.9287 36.3321L41.9751 51.1814Z"/>
<path d="M106.023 66.4141L59.5146 83.7571V94.7292L106.023 77.3862V66.4141Z"/>
</mask>
<path fill-rule="evenodd" clip-rule="evenodd" d="M2 19.343L54.544 2L106 19.4212V26.5L59.5144 43.7648L52.4536 55.3362L59.8694 58.2766L106.023 40.9336V51.9057L59.5143 69.2487L47.0074 64.2613L33.5974 86.2375L22.5916 81.9903L2 19.343ZM41.9751 51.1814L28.627 45.8887L32.8873 58.6306L37.0879 60.3057L30.4022 72.7878L14.781 26.0679L54.544 12.9721L85.4314 23.2364L49.9287 36.3321L41.9751 51.1814Z" fill="black"/>
<path d="M106.023 66.4141L59.5146 83.7571V94.7292L106.023 77.3862V66.4141Z" fill="black"/>
<path d="M54.544 2L54.8647 1.05281L54.5481 0.945606L54.2306 1.05039L54.544 2ZM2 19.343L1.68657 18.3934L0.738133 18.7065L1.05 19.6553L2 19.343ZM106 19.4212H107V18.704L106.321 18.474L106 19.4212ZM106 26.5L106.348 27.4374L107 27.1953V26.5H106ZM59.5144 43.7648L59.1663 42.8274L58.8413 42.9481L58.6608 43.2439L59.5144 43.7648ZM52.4536 55.3362L51.5999 54.8153L50.9818 55.8284L52.085 56.2658L52.4536 55.3362ZM59.8694 58.2766L59.5008 59.2062L59.8597 59.3485L60.2211 59.2127L59.8694 58.2766ZM106.023 40.9336H107.023V39.4896L105.671 39.9975L106.023 40.9336ZM106.023 51.9057L106.372 52.8427L107.023 52.6001V51.9057H106.023ZM59.5143 69.2487L59.1439 70.1776L59.5023 70.3205L59.8637 70.1857L59.5143 69.2487ZM47.0074 64.2613L47.3778 63.3324L46.5936 63.0197L46.1538 63.7404L47.0074 64.2613ZM33.5974 86.2375L33.2374 87.1705L34.0162 87.471L34.4511 86.7584L33.5974 86.2375ZM22.5916 81.9903L21.6416 82.3025L21.7895 82.7526L22.2316 82.9232L22.5916 81.9903ZM28.627 45.8887L28.9955 44.9591L26.9967 44.1666L27.6786 46.2058L28.627 45.8887ZM41.9751 51.1814L41.6065 52.111L42.4355 52.4397L42.8566 51.6535L41.9751 51.1814ZM32.8873 58.6306L31.9389 58.9477L32.086 59.3876L32.5169 59.5594L32.8873 58.6306ZM37.0879 60.3057L37.9694 60.7778L38.4978 59.7913L37.4583 59.3768L37.0879 60.3057ZM30.4022 72.7878L29.4538 73.1049L30.189 75.3038L31.2837 73.26L30.4022 72.7878ZM14.781 26.0679L14.4682 25.1181L13.5141 25.4323L13.8326 26.385L14.781 26.0679ZM54.544 12.9721L54.8594 12.0231L54.5455 11.9188L54.2312 12.0223L54.544 12.9721ZM85.4314 23.2364L85.7775 24.1746L88.4544 23.1871L85.7468 22.2874L85.4314 23.2364ZM49.9287 36.3321L49.5826 35.3939L49.2264 35.5253L49.0472 35.86L49.9287 36.3321ZM59.5146 83.7571L59.1653 82.8201L58.5146 83.0627V83.7571H59.5146ZM106.023 66.4141H107.023V64.9739L105.674 65.4771L106.023 66.4141ZM59.5146 94.7292H58.5146V96.1694L59.864 95.6662L59.5146 94.7292ZM106.023 77.3862L106.373 78.3232L107.023 78.0806V77.3862H106.023ZM54.2306 1.05039L1.68657 18.3934L2.31343 20.2926L54.8575 2.94961L54.2306 1.05039ZM106.321 18.474L54.8647 1.05281L54.2234 2.94719L105.679 20.3684L106.321 18.474ZM107 26.5V19.4212H105V26.5H107ZM59.8626 44.7023L106.348 27.4374L105.652 25.5626L59.1663 42.8274L59.8626 44.7023ZM53.3072 55.8571L60.3681 44.2857L58.6608 43.2439L51.5999 54.8153L53.3072 55.8571ZM52.085 56.2658L59.5008 59.2062L60.2379 57.347L52.8221 54.4066L52.085 56.2658ZM60.2211 59.2127L106.375 41.8697L105.671 39.9975L59.5176 57.3405L60.2211 59.2127ZM105.023 40.9336V51.9057H107.023V40.9336H105.023ZM105.674 50.9687L59.1649 68.3118L59.8637 70.1857L106.372 52.8427L105.674 50.9687ZM34.4511 86.7584L47.861 64.7822L46.1538 63.7404L32.7438 85.7167L34.4511 86.7584ZM22.2316 82.9232L33.2374 87.1705L33.9575 85.3046L22.9516 81.0573L22.2316 82.9232ZM1.05 19.6553L21.6416 82.3025L23.5416 81.678L2.95 19.0308L1.05 19.6553ZM28.2584 46.8183L41.6065 52.111L42.3437 50.2518L28.9955 44.9591L28.2584 46.8183ZM33.8357 58.3135L29.5753 45.5716L27.6786 46.2058L31.9389 58.9477L33.8357 58.3135ZM37.4583 59.3768L33.2577 57.7017L32.5169 59.5594L36.7175 61.2345L37.4583 59.3768ZM36.2064 59.8335L29.5207 72.3157L31.2837 73.26L37.9694 60.7778L36.2064 59.8335ZM31.3506 72.4707L15.7294 25.7508L13.8326 26.385L29.4538 73.1049L31.3506 72.4707ZM15.0938 27.0177L54.8569 13.9219L54.2312 12.0223L14.4682 25.1181L15.0938 27.0177ZM54.2287 13.9211L85.1161 24.1853L85.7468 22.2874L54.8594 12.0231L54.2287 13.9211ZM85.0854 22.2981L49.5826 35.3939L50.2748 37.2703L85.7775 24.1746L85.0854 22.2981ZM49.0472 35.86L41.0936 50.7092L42.8566 51.6535L50.8102 36.8043L49.0472 35.86ZM59.864 84.6941L106.373 67.351L105.674 65.4771L59.1653 82.8201L59.864 84.6941ZM60.5146 94.7292V83.7571H58.5146V94.7292H60.5146ZM105.674 76.4492L59.1653 93.7922L59.864 95.6662L106.373 78.3232L105.674 76.4492ZM105.023 66.4141V77.3862H107.023V66.4141H105.023ZM59.8847 68.3199L47.3778 63.3324L46.637 65.1902L59.1439 70.1776L59.8847 68.3199Z" fill="black" mask="url(#path-4-outside-1_191_4680)"/>
</svg>
