<svg width="28" height="28" viewBox="0 0 28 28" fill="none" xmlns="http://www.w3.org/2000/svg">
<g clip-path="url(#clip0_191_5358)">
<rect width="28" height="28" fill="white"/>
</g>
<path fill-rule="evenodd" clip-rule="evenodd" d="M3.80762 8.22694L14.1043 4.82837L24.1226 8.22694V9.61412L15.0783 13.0127L13.6945 15.2803L15.1478 15.8566L24.1922 12.458V14.6081L15.0782 18.0067L12.6273 17.0293L9.99952 21.3357L7.84279 20.5034L3.80762 8.22694ZM11.6412 14.4662L9.02548 13.429L9.86035 15.9259L10.6835 16.2542L9.37337 18.7001L6.31221 9.54476L14.1043 6.97849L20.157 8.98989L13.1998 11.5562L11.6412 14.4662Z" fill="#FF6E99"/>
<path d="M24.1922 17.4511L15.0783 20.8497V22.9998L24.1922 19.6012V17.4511Z" fill="#FF6E99"/>
<defs>
<clipPath id="clip0_191_5358">
<rect width="28" height="28" rx="14" fill="white"/>
</clipPath>
</defs>
</svg>
