<svg xmlns="http://www.w3.org/2000/svg" width="48" height="48" viewBox="0 0 48 48" fill="none">
  <rect width="48" height="48" rx="10" fill="url(#paint0_linear_196_390)"/>
  <path fill-rule="evenodd" clip-rule="evenodd" d="M8 15.3047L24.0715 10L39.7086 15.3047V17.4698L25.5917 22.7745L23.432 26.3139L25.7003 27.2133L39.8171 21.9087V25.2647L25.5917 30.5693L21.7662 29.0438L17.6646 35.7654L14.2983 34.4664L8 15.3047ZM20.227 25.0431L16.1443 23.4243L17.4474 27.3216L18.7321 27.8339L16.6873 31.6516L11.9093 17.3616L24.0715 13.356L33.5189 16.4955L22.6598 20.501L20.227 25.0431Z" fill="white"/>
  <path d="M39.8172 29.7021L25.5918 35.0068V38.3628L39.8172 33.0582V29.7021Z" fill="white"/>
  <defs>
    <linearGradient id="paint0_linear_196_390" x1="37" y1="-17.5" x2="-15.536" y2="10.546" gradientUnits="userSpaceOnUse">
      <stop stop-color="#FC954B"/>
      <stop offset="1" stop-color="#F45DD3"/>
    </linearGradient>
  </defs>
</svg>